10lbsSpring1
version=1
nRows=22
nColumns=28
inDegrees=yes
endheader
time	ground_force1_vx	ground_force1_vy	ground_force1_vz	ground_force1_px	ground_force1_py	ground_force1_pz	ground_torque1_x	ground_torque1_y	ground_torque1_z	ground_force2_vx	ground_force2_vy	ground_force2_vz	ground_force2_px	ground_force2_py	ground_force2_pz	ground_torque2_x	ground_torque2_y	ground_torque2_z	ground_force3_vx	ground_force3_vy	ground_force3_vz	ground_force3_px	ground_force3_py	ground_force3_pz	ground_torque3_x	ground_torque3_y	ground_torque3_z
0.000000	0.509168	-1.066040	0.094158	-0.203000	0.000000	0.001500	0.110411	0.189216	-0.088140	-0.268327	52.187382	-4.643083	-0.192466	0.000000	-0.587906	0.000003	-0.765369	-0.000000	-0.342013	-2.197478	-0.618464	0.200000	0.000000	-0.300000	0.086023	-0.001220	0.114075	
0.001000	0.332374	-1.067039	0.163072	-0.203000	0.000000	0.001500	0.184394	0.118231	-0.041519	0.080950	53.495827	-4.513017	-0.194968	0.000000	-0.585890	0.000003	-0.719653	-0.000001	-0.128917	-2.469833	-0.542467	0.200000	0.000000	-0.300000	-0.046232	-0.003630	0.104601	
0.002000	0.186174	-1.156789	0.041838	-0.203000	0.000000	0.001500	-0.128977	0.180004	0.008502	-0.236427	51.609375	-4.633915	-0.195741	0.000000	-0.585077	-0.000000	-0.800316	-0.000001	0.208443	-2.244575	-0.545839	0.200000	0.000000	-0.300000	-0.160515	-0.019644	0.276515	
0.003000	0.203834	-1.603752	-0.260539	-0.203000	0.000000	0.001500	-0.096603	0.163645	-0.106917	-0.220882	51.785606	-4.427304	-0.193285	0.000000	-0.587733	0.000002	-0.725264	-0.000001	-0.139340	-2.653567	-0.498657	0.200000	0.000000	-0.300000	0.096039	-0.006360	0.083324	
0.004000	-0.158904	-0.401726	-0.177366	-0.203000	0.000000	0.001500	0.191414	0.171359	-0.020353	-0.122218	52.821178	-4.656865	-0.193162	0.000000	-0.586833	0.000002	-0.727138	-0.000001	0.210697	-1.210752	-0.162373	0.200000	0.000000	-0.300000	0.030395	0.068847	0.148530	
0.005000	-0.004691	-0.977827	-0.168452	-0.203000	0.000000	0.001500	0.043787	0.205443	0.025548	0.034496	51.515720	-4.579525	-0.194997	0.000000	-0.587324	0.000002	-0.779054	-0.000001	0.426328	-2.158638	-0.085352	0.200000	0.000000	-0.300000	0.015826	-0.077480	0.236915	
0.006000	-0.007684	-2.498756	-0.080436	-0.203000	0.000000	0.001500	0.076368	0.094433	-0.033843	0.012336	53.446587	-4.602931	-0.194509	0.000000	-0.589119	0.000002	-0.736442	-0.000000	0.263189	-2.156702	-0.548647	0.200000	0.000000	-0.300000	0.096338	0.035601	0.067042	
0.007000	0.010458	-0.087932	-0.022248	-0.203000	0.000000	0.001500	0.026411	0.022539	-0.022232	-0.148773	53.369080	-4.783197	-0.196452	0.000000	-0.588104	0.000000	-0.705260	-0.000001	0.226544	-2.070395	-0.014617	0.200000	0.000000	-0.300000	-0.225810	0.033414	0.113187	
0.008000	0.084099	-0.844164	-0.202372	-0.203000	0.000000	0.001500	0.169818	0.175742	-0.128213	-0.168794	50.709820	-4.894858	-0.192730	0.000000	-0.589405	0.000001	-0.744989	-0.000001	-0.107524	-1.522827	-0.655430	0.200000	0.000000	-0.300000	-0.011343	0.017554	0.033539	
0.009000	0.101774	-1.781649	-0.338089	-0.203000	0.000000	0.001500	-0.127251	0.122364	0.209957	-0.292477	51.923508	-4.575922	-0.195326	0.000000	-0.587151	0.000001	-0.810599	-0.000000	-0.135918	-2.242436	-0.171411	0.200000	0.000000	-0.300000	-0.172548	0.023837	0.241953	
0.010000	0.205239	-1.737146	-0.171458	-0.203000	0.000000	0.001500	0.000748	0.088024	0.002513	-0.075971	51.698227	-4.555318	-0.193918	0.000000	-0.586210	0.000001	-0.693004	-0.000001	0.179895	-2.876054	-0.118766	0.200000	0.000000	-0.300000	-0.099749	0.078669	0.149942	
0.011000	-0.182498	-1.383135	-0.088631	-0.203000	0.000000	0.001500	0.041468	0.081201	0.085307	-0.210804	52.369781	-4.416499	-0.194157	0.000000	-0.585992	0.000001	-0.718014	-0.000000	0.102015	-2.701860	-0.286547	0.200000	0.000000	-0.300000	-0.144549	0.116196	0.063570	
0.012000	-0.148441	-0.895762	-0.077632	-0.203000	0.000000	0.001500	0.052294	0.145852	-0.087781	-0.033381	52.642490	-4.557544	-0.194556	0.000000	-0.588788	0.000001	-0.637310	-0.000000	-0.440154	-1.607517	-0.379272	0.200000	0.000000	-0.300000	-0.142593	0.029259	0.303920	
0.013000	0.067264	0.095670	-0.011543	-0.203000	0.000000	0.001500	0.110228	0.144357	0.001725	0.069560	52.156509	-4.411160	-0.197715	0.000000	-0.586637	0.000004	-0.676910	0.000000	-0.297059	-2.915886	-0.476520	0.200000	0.000000	-0.300000	-0.088857	-0.013382	0.097944	
0.014000	-0.083183	-1.565354	-0.078959	-0.203000	0.000000	0.001500	-0.040476	0.111404	0.032229	-0.335771	50.851158	-4.473052	-0.196122	0.000000	-0.588682	0.000001	-0.746672	-0.000000	0.159823	-2.976854	-0.017853	0.200000	0.000000	-0.300000	0.072402	0.039559	0.207066	
0.015000	-0.033164	-0.173686	-0.021546	-0.203000	0.000000	0.001500	-0.016830	0.011013	0.001131	-0.371008	50.664803	-4.392834	-0.196568	0.000000	-0.588812	0.000002	-0.787110	-0.000000	0.010415	-1.035082	-0.091874	0.200000	0.000000	-0.300000	-0.004880	0.070818	0.228233	
0.016000	-0.239456	-1.254092	-0.155568	-0.203000	0.000000	0.001500	-0.121517	0.079517	0.008167	-0.118912	51.438740	-4.439279	-0.195358	0.000000	-0.584785	-0.000000	-0.697272	-0.000001	0.068048	-1.019746	-0.070996	0.200000	0.000000	-0.300000	-0.029837	0.054629	0.114744	
0.017000	0.042261	-0.129169	-0.033007	-0.203000	0.000000	0.001500	0.020236	0.015420	-0.010360	-0.499695	50.347790	-4.721024	-0.195834	0.000000	-0.581558	0.000001	-0.706428	-0.000001	-0.075109	-3.191615	0.074392	0.200000	0.000000	-0.300000	-0.186454	0.051232	0.203976	
0.018000	0.316968	-1.024409	-0.283134	-0.203000	0.000000	0.001500	0.140078	0.116379	-0.079976	0.174164	51.568111	-4.424477	-0.193779	0.000000	-0.587308	0.000001	-0.681193	-0.000000	-0.030198	-2.704168	-0.047219	0.200000	0.000000	-0.300000	0.043472	0.039670	0.148839	
0.019000	0.114683	-0.755329	-0.348523	-0.203000	0.000000	0.001500	-0.067395	0.049316	-0.053138	-0.117224	51.293137	-4.016705	-0.194568	0.000000	-0.588881	0.000003	-0.662355	-0.000000	-0.303885	-1.563093	-0.380403	0.200000	0.000000	-0.300000	0.058813	0.072725	0.189194	
0.020000	0.307151	-0.938793	-0.239893	-0.203000	0.000000	0.001500	-0.124094	0.128181	-0.137207	0.035403	51.611095	-4.557614	-0.194415	0.000000	-0.586925	0.000002	-0.675309	-0.000000	-0.498956	-2.426880	-0.506306	0.200000	0.000000	-0.300000	-0.039340	0.067889	-0.042680	
0.021000	-0.000000	-0.000000	0.000000	-0.203000	0.000000	0.001500	0.000000	0.000000	0.000000	0.048037	51.567558	-4.440560	-0.194204	0.000000	-0.585631	0.000003	-0.700848	-0.000000	-0.180242	-1.795594	-0.217771	0.200000	0.000000	-0.300000	-0.115506	0.042326	0.018977	
